%TF.GenerationSoftware,Altium Limited,Altium Designer,19.0.15 (446)*%
G04 Layer_Physical_Order=1*
G04 Layer_Color=255*
%FSLAX45Y45*%
%MOMM*%
%TF.FileFunction,Copper,L1,Top,Signal*%
%TF.Part,Single*%
G01*
G75*
%TA.AperFunction,Conductor*%
%ADD10C,2.60000*%
%TA.AperFunction,ViaPad*%
%ADD11C,2.00000*%
G36*
X11450004Y7680000D02*
X9449994Y7679999D01*
X9449995Y7630000D01*
X14999988Y7630000D01*
X14999989Y7370000D01*
X9450000D01*
X9450000Y7320000D01*
X11450000Y7319999D01*
X11449999Y2549999D01*
X3550000Y2549999D01*
X3550000Y12449999D01*
X11450009Y12450003D01*
X11450004Y7680000D01*
D02*
G37*
%LPC*%
G36*
X14612700Y7624810D02*
Y7512700D01*
X14724809D01*
X14722173Y7532736D01*
X14709537Y7563241D01*
X14689436Y7589436D01*
X14663242Y7609537D01*
X14632736Y7622172D01*
X14612700Y7624810D01*
D02*
G37*
G36*
X14587300D02*
X14567264Y7622172D01*
X14536758Y7609537D01*
X14510564Y7589436D01*
X14490463Y7563241D01*
X14477827Y7532736D01*
X14475191Y7512700D01*
X14587300D01*
Y7624810D01*
D02*
G37*
G36*
X14724809Y7487300D02*
X14612700D01*
Y7375190D01*
X14632736Y7377828D01*
X14663242Y7390463D01*
X14689436Y7410564D01*
X14709537Y7436759D01*
X14722173Y7467264D01*
X14724809Y7487300D01*
D02*
G37*
G36*
X14587300D02*
X14475191D01*
X14477827Y7467264D01*
X14490463Y7436759D01*
X14510564Y7410564D01*
X14536758Y7390463D01*
X14567264Y7377828D01*
X14587300Y7375190D01*
Y7487300D01*
D02*
G37*
%LPD*%
D10*
X14500000Y7500000D02*
X14600000D01*
D11*
D03*
%TF.MD5,246dcb1384febaf74b5c713becb52e97*%
M02*
